<svg width="23" height="17" viewBox="0 0 23 17" fill="none" xmlns="http://www.w3.org/2000/svg">
    <path d="M8.55648 0H8.44352C7.331 0.00372078 6.2301 0.227263 5.20369 0.657865C4.17727 1.08847 3.24543 1.71769 2.46139 2.50962C0.877928 4.10899 -0.00744233 6.27398 4.71316e-05 8.52831C0.00753659 10.7826 0.907272 12.9417 2.50132 14.5304C4.09537 16.1191 6.25316 17.0075 8.5 17C10.7468 17.0075 12.9046 16.1191 14.4987 14.5304C16.0927 12.9417 16.9925 10.7826 17 8.52831C17.0074 6.27398 16.1221 4.10899 14.5386 2.50962C12.9552 0.910252 10.8033 0.00751445 8.55648 0ZM14.6032 4.95832H11.6769C11.4386 3.77857 10.9721 2.65715 10.3038 1.6575C12.1159 2.14332 13.6621 3.33037 14.6032 4.95832ZM8.5 15.3C7.6515 14.3833 7.05648 13.2601 6.77389 12.0416H10.2261C9.94352 13.2601 9.3485 14.3833 8.5 15.3ZM6.51268 10.625C6.33852 9.2137 6.33852 7.78626 6.51268 6.37498H10.4873C10.6615 7.78626 10.6615 9.2137 10.4873 10.625H6.51268ZM1.44024 8.49998C1.44108 7.77927 1.55057 7.06283 1.76499 6.37498H5.09366C4.92892 7.78682 4.92892 9.21313 5.09366 10.625H1.76499C1.55057 9.93712 1.44108 9.22068 1.44024 8.49998ZM8.5 1.69999C9.3485 2.61665 9.94352 3.73986 10.2261 4.95832H6.77389C7.05648 3.73986 7.6515 2.61665 8.5 1.69999ZM11.9063 6.37498H15.235C15.6686 7.75825 15.6686 9.2417 15.235 10.625H11.9063C12.0711 9.21313 12.0711 7.78682 11.9063 6.37498ZM6.69976 1.6575C6.03018 2.65687 5.56247 3.77831 5.32311 4.95832H2.39331C3.33606 3.32889 4.885 2.14165 6.69976 1.6575ZM2.39684 12.0416H5.32311C5.56139 13.2214 6.02789 14.3428 6.69623 15.3425C4.88409 14.8566 3.33794 13.6696 2.39684 12.0416ZM10.3002 15.3425C10.9698 14.3431 11.4375 13.2216 11.6769 12.0416H14.6067C13.6639 13.6711 12.115 14.8583 10.3002 15.3425Z" fill="#808080"/>
    <path d="m22.875,8.50502c-0.008,-0.21 -0.095,-0.453 -0.239,-0.606l-4.706,-5c-0.319,-0.287 -0.93,-0.405 -1.287,-0.074c-0.35,0.327 -0.34,0.96 0.01,1.287l3.308,3.511l-16.204,0c-0.487,0 -0.882,0.396 -0.882,0.883s0.395,0.882 0.882,0.882l16.204,0l-3.308,3.511c-0.302,0.302 -0.357,0.957 -0.01,1.287c0.348,0.33 0.981,0.225 1.287,-0.073l4.706,-5c0.161,-0.172 0.24,-0.372 0.239,-0.607l0,-0.001z" fill="#404040"/>
</svg>
